<?xml version="1.0" standalone="no"?>
<svg xmlns:xlink="http://www.w3.org/1999/xlink" id="wave" style="transform:rotate(180deg); transition: 0.3s" viewBox="0 0 1440 100" version="1.1" xmlns="http://www.w3.org/2000/svg"><defs><linearGradient id="sw-gradient-0" x1="0" x2="0" y1="1" y2="0"><stop stop-color="rgba(255, 249, 234, 1)" offset="0%"/><stop stop-color="rgba(255, 249, 234, 1)" offset="100%"/></linearGradient></defs><path style="transform:translate(0, 0px); opacity:1" fill="url(#sw-gradient-0)" d="M0,70L26.7,58.3C53.3,47,107,23,160,15C213.3,7,267,13,320,25C373.3,37,427,53,480,53.3C533.3,53,587,37,640,33.3C693.3,30,747,40,800,51.7C853.3,63,907,77,960,71.7C1013.3,67,1067,43,1120,33.3C1173.3,23,1227,27,1280,36.7C1333.3,47,1387,63,1440,66.7C1493.3,70,1547,60,1600,56.7C1653.3,53,1707,57,1760,55C1813.3,53,1867,47,1920,50C1973.3,53,2027,67,2080,71.7C2133.3,77,2187,73,2240,75C2293.3,77,2347,83,2400,71.7C2453.3,60,2507,30,2560,30C2613.3,30,2667,60,2720,71.7C2773.3,83,2827,77,2880,76.7C2933.3,77,2987,83,3040,85C3093.3,87,3147,83,3200,71.7C3253.3,60,3307,40,3360,31.7C3413.3,23,3467,27,3520,25C3573.3,23,3627,17,3680,18.3C3733.3,20,3787,30,3813,35L3840,40L3840,100L3813.3,100C3786.7,100,3733,100,3680,100C3626.7,100,3573,100,3520,100C3466.7,100,3413,100,3360,100C3306.7,100,3253,100,3200,100C3146.7,100,3093,100,3040,100C2986.7,100,2933,100,2880,100C2826.7,100,2773,100,2720,100C2666.7,100,2613,100,2560,100C2506.7,100,2453,100,2400,100C2346.7,100,2293,100,2240,100C2186.7,100,2133,100,2080,100C2026.7,100,1973,100,1920,100C1866.7,100,1813,100,1760,100C1706.7,100,1653,100,1600,100C1546.7,100,1493,100,1440,100C1386.7,100,1333,100,1280,100C1226.7,100,1173,100,1120,100C1066.7,100,1013,100,960,100C906.7,100,853,100,800,100C746.7,100,693,100,640,100C586.7,100,533,100,480,100C426.7,100,373,100,320,100C266.7,100,213,100,160,100C106.7,100,53,100,27,100L0,100Z"/></svg>